{"title":"Comedy Nights with Kapil - Shaadi ke Side Effect Leke aaya Farha","uid":9628961,"size":669338108,"categoryP":"video","categoryS":"tv_shows","magnet":"?xt=urn:btih:de328ed9f55b6e93f42a5b509d07a20c2ee9c4c4&amp;dn=Comedy+Nights+with+Kapil+-+Shaadi+ke+Side+Effect+Leke+aaya+Farha&amp;tr=udp%3A%2F%2Ftracker.openbittorrent.com%3A80&amp;tr=udp%3A%2F%2Fopen.demonii.com%3A1337&amp;tr=udp%3A%2F%2Ftracker.coppersurfer.tk%3A6969&amp;tr=udp%3A%2F%2Fexodus.desync.com%3A6969","seeders":1,"leechers":0,"uploader":"Palash995","files":1,"time":1392643431,"description":"\n\nWithout Any reason..Don't Dislike the torrent.....please check and give your feedback[/color][/size]\n\n[img]http://i843.photobucket.com/albums/zz358/0Krish0/qiWyCf1pvj_zps682a8ccb.png[/img]\n\n[size=100][color=red]Comedy Nights with Kapil - Shaadi ke Side Effect Leke aaya Farhan aur Vidya - 16th Feb[/color][/size]\n\n\nComedy Nights With Kapil\nSeason 1 Ep. 55\nReleased: 16/02/14\nRunning time: 01:07:09\n\nOn the occasion of Pinky Bua's wedding, Kapil does a wonderful arrangement of entertainment for the Fufaji. With this Kapil also starts his wisecracks and one-liners, having the audience in splits. Indian Idol fame, Abhijeet Sawant and the Jhalak girl, Loren show their presence with some sizzling and funny performances. Later, the guest of the night, Farhan Akhtar and Vidhya Balan join the stage with the host Kapil, to promote their upcoming movie, Shadi Ke Side Effect, but get disturbed by Kapil's weird family members. Further, Farhan and Vidya share their side on Shadi Ke Side Effect. Watch the entire episode, to know what happened with Pinky Bua's marriage.\n\nScreenshots:-\n\n\n\n\n\nMedia Info:-\n\nGeneral\nComplete name                            : Comedy Nights with Kapil - Shaadi ke Side Effect Leke aaya Farhan aur Vidya - 16th Feb {DAKU RG} {GreatPalash}.mkv\nFormat                                   : Matroska\nFormat version                           : Version 4 / Version 2\nFile size                                : 638 MiB\nDuration                                 : 1h 7mn\nOverall bit rate                         : 1 329 Kbps\nMovie name                               : {GreatPalash} - For More Updates And Other Stuff Please Like Us On Facebook -\nEncoded date                             : UTC 2014-02-17 10:46:49\nWriting application                      : mkvmerge v6.7.0 ('Back to the Ground') 32bit built on Jan  8 2014 15:03:17\nWriting library                          : libebml v1.3.0 + libmatroska v1.4.1\n\nVideo\nID                                       : 1\nFormat                                   : MPEG-4 Visual\nFormat profile                           : Advanced Simple@L5\nFormat settings, BVOP                    : Yes\nFormat settings, QPel                    : No\nFormat settings, GMC                     : No warppoints\nFormat settings, Matrix                  : Default (H.263)\nCodec ID                                 : V_MS/VFW/FOURCC / XVID\nCodec ID/Hint                            : XviD\nDuration                                 : 1h 7mn\nBit rate                                 : 1 175 Kbps\nWidth                                    : 640 pixels\nHeight                                   : 360 pixels\nDisplay aspect ratio                     : 16:9\nFrame rate mode                          : Constant\nFrame rate                               : 25.000 fps\nColor space                              : YUV\nChroma subsampling                       : 4:2:0\nBit depth                                : 8 bits\nScan type                                : Progressive\nCompression mode                         : Lossy\nBits/(Pixel*Frame)                       : 0.204\nStream size                              : 564 MiB (88%)\nWriting library                          : XviD 64\nDefault                                  : Yes\nForced                                   : No\n\nAudio\nID                                       : 2\nFormat                                   : AC-3\nFormat/Info                              : Audio Coding 3\nMode extension                           : CM (complete main)\nFormat settings, Endianness              : Big\nCodec ID                                 : A_AC3\nDuration                                 : 1h 7mn\nBit rate mode                            : Constant\nBit rate                                 : 128 Kbps\nChannel(s)                               : 2 channels\nChannel positions                        : Front: L R\nSampling rate                            : 48.0 KHz\nBit depth                                : 16 bits\nCompression mode                         : Lossy\nStream size                              : 61.5 MiB (10%)\nDefault                                  : Yes\nForced                                   : No\n\n[IMG]http://imageshack.us/a/img89/4822/zka.gif[/IMG]\n\n[IMG]http://imageshack.us/a/img200/185/tj8.gif[/IMG]\n\n[IMG]http://imageshack.us/a/img593/9603/ua8.gif[/IMG]\n\n[IMG]http://imageshack.us/a/img707/5608/ysmp.png[/IMG][/b][/center]","torrent":{"xt":"urn:btih:de328ed9f55b6e93f42a5b509d07a20c2ee9c4c4","amp;dn":"Comedy+Nights+with+Kapil+-+Shaadi+ke+Side+Effect+Leke+aaya+Farha","amp;tr":["udp%3A%2F%2Ftracker.openbittorrent.com%3A80","udp%3A%2F%2Fopen.demonii.com%3A1337","udp%3A%2F%2Ftracker.coppersurfer.tk%3A6969","udp%3A%2F%2Fexodus.desync.com%3A6969"],"infoHash":"de328ed9f55b6e93f42a5b509d07a20c2ee9c4c4","infoHashBuffer":{"type":"Buffer","data":[222,50,142,217,245,91,110,147,244,42,91,80,157,7,162,12,46,233,196,196]},"announce":[],"urlList":[]}}